<?xml version="1.0" encoding="utf-8"?>
<!-- Generator: Adobe Illustrator 15.0.2, SVG Export Plug-In . SVG Version: 6.00 Build 0)  -->
<!DOCTYPE svg PUBLIC "-//W3C//DTD SVG 1.1//EN" "http://www.w3.org/Graphics/SVG/1.1/DTD/svg11.dtd">
<svg version="1.1" id="Layer_1" xmlns="http://www.w3.org/2000/svg" xmlns:xlink="http://www.w3.org/1999/xlink" x="0px" y="0px"
	 width="225.5px" height="54px" viewBox="0 0 225.5 54" enable-background="new 0 0 225.5 54" xml:space="preserve">
<g>
	<g>
		<path fill="#231F20" d="M106.877,20.206h1.387v5.041h3.143v1.261h-4.529V20.206z"/>
		<path fill="#231F20" d="M112.268,20.206h4.754v1.233h-3.377v1.278h2.971v1.233h-2.971v1.323h3.422v1.233h-4.799V20.206z"/>
		<path fill="#231F20" d="M117.838,23.375v-0.019c0-1.791,1.414-3.258,3.359-3.258c1.943,0,3.34,1.449,3.34,3.24v0.018
			c0,1.792-1.414,3.26-3.357,3.26C119.234,26.616,117.838,25.167,117.838,23.375z M123.088,23.375v-0.019
			c0-1.08-0.793-1.98-1.908-1.98c-1.117,0-1.891,0.883-1.891,1.963v0.018c0,1.08,0.791,1.98,1.908,1.98
			C122.313,25.337,123.088,24.455,123.088,23.375z"/>
		<path fill="#231F20" d="M125.588,20.206h1.277l2.953,3.88v-3.88h1.369v6.302h-1.18l-3.053-4.007v4.007h-1.367V20.206z"/>
		<path fill="#231F20" d="M134.678,20.161h1.279l2.699,6.347h-1.449l-0.576-1.413h-2.664l-0.576,1.413h-1.414L134.678,20.161z
			 M136.137,23.87l-0.838-2.043l-0.838,2.043H136.137z"/>
		<path fill="#231F20" d="M139.447,20.206h2.881c0.801,0,1.422,0.225,1.836,0.639c0.352,0.352,0.541,0.847,0.541,1.441v0.018
			c0,1.018-0.549,1.656-1.35,1.953l1.539,2.251h-1.621l-1.35-2.017h-0.02h-1.07v2.017h-1.387V20.206z M142.238,23.267
			c0.676,0,1.063-0.359,1.063-0.891v-0.019c0-0.595-0.414-0.899-1.09-0.899h-1.377v1.809H142.238z"/>
		<path fill="#231F20" d="M145.773,20.206h2.459c1.98,0,3.348,1.359,3.348,3.133v0.018c0,1.773-1.367,3.151-3.348,3.151h-2.459
			V20.206z M148.232,25.257c1.133,0,1.898-0.766,1.898-1.882v-0.019c0-1.115-0.766-1.898-1.898-1.898h-1.072v3.799H148.232z"/>
		<path fill="#231F20" d="M155.152,20.206h1.277l2.953,3.88v-3.88h1.369v6.302h-1.18l-3.053-4.007v4.007h-1.367V20.206z"/>
		<path fill="#231F20" d="M161.883,25.067h1.459v1.44h-1.459V25.067z"/>
		<path fill="#231F20" d="M166.055,25.589l0.82-0.98c0.566,0.468,1.16,0.766,1.881,0.766c0.568,0,0.91-0.226,0.91-0.595v-0.019
			c0-0.351-0.217-0.531-1.27-0.801c-1.27-0.324-2.09-0.676-2.09-1.926v-0.019c0-1.144,0.92-1.899,2.207-1.899
			c0.918,0,1.701,0.287,2.34,0.801l-0.721,1.045c-0.557-0.388-1.107-0.621-1.639-0.621c-0.529,0-0.809,0.242-0.809,0.549v0.018
			c0,0.414,0.27,0.549,1.359,0.828c1.277,0.334,1.998,0.793,1.998,1.891v0.018c0,1.252-0.955,1.954-2.314,1.954
			C167.775,26.598,166.813,26.265,166.055,25.589z"/>
		<path fill="#231F20" d="M173.535,21.484h-1.918v-1.278h5.221v1.278h-1.918v5.023h-1.385V21.484z"/>
		<path fill="#231F20" d="M177.719,20.206h4.754v1.233h-3.375v1.278h2.971v1.233h-2.971v1.323h3.42v1.233h-4.799V20.206z"/>
		<path fill="#231F20" d="M183.568,20.206h2.881c0.803,0,1.424,0.225,1.838,0.639c0.35,0.352,0.539,0.847,0.539,1.441v0.018
			c0,1.018-0.549,1.656-1.35,1.953l1.539,2.251h-1.621l-1.35-2.017h-0.018h-1.072v2.017h-1.387V20.206z M186.359,23.267
			c0.676,0,1.063-0.359,1.063-0.891v-0.019c0-0.595-0.414-0.899-1.09-0.899h-1.377v1.809H186.359z"/>
		<path fill="#231F20" d="M189.896,20.206h1.277l2.953,3.88v-3.88h1.369v6.302h-1.18l-3.053-4.007v4.007h-1.367V20.206z"/>
		<path fill="#231F20" d="M106.445,34.589l0.818-0.98c0.568,0.468,1.162,0.766,1.883,0.766c0.566,0,0.908-0.226,0.908-0.595v-0.019
			c0-0.351-0.215-0.531-1.27-0.801c-1.27-0.324-2.088-0.676-2.088-1.926v-0.019c0-1.144,0.918-1.899,2.205-1.899
			c0.918,0,1.701,0.287,2.342,0.801l-0.721,1.045c-0.559-0.388-1.107-0.621-1.639-0.621s-0.811,0.242-0.811,0.549v0.018
			c0,0.414,0.27,0.549,1.359,0.828c1.279,0.334,1.998,0.793,1.998,1.891v0.018c0,1.252-0.953,1.954-2.313,1.954
			C108.164,35.598,107.201,35.265,106.445,34.589z"/>
		<path fill="#231F20" d="M112.178,32.375v-0.019c0-1.791,1.35-3.258,3.285-3.258c1.189,0,1.9,0.396,2.486,0.972l-0.883,1.017
			c-0.486-0.44-0.982-0.711-1.611-0.711c-1.063,0-1.828,0.883-1.828,1.963v0.018c0,1.08,0.748,1.98,1.828,1.98
			c0.719,0,1.16-0.287,1.656-0.738l0.883,0.893c-0.648,0.692-1.369,1.125-2.584,1.125C113.555,35.616,112.178,34.185,112.178,32.375
			z"/>
		<path fill="#231F20" d="M118.92,29.206h1.385V31.7h2.557v-2.494h1.387v6.302h-1.387v-2.53h-2.557v2.53h-1.385V29.206z"/>
		<path fill="#231F20" d="M125.299,32.375v-0.019c0-1.791,1.414-3.258,3.359-3.258c1.943,0,3.34,1.449,3.34,3.24v0.018
			c0,1.792-1.414,3.26-3.357,3.26C126.695,35.616,125.299,34.167,125.299,32.375z M130.549,32.375v-0.019
			c0-1.08-0.793-1.98-1.908-1.98c-1.117,0-1.891,0.883-1.891,1.963v0.018c0,1.08,0.791,1.98,1.908,1.98
			C129.773,34.337,130.549,33.455,130.549,32.375z"/>
		<path fill="#231F20" d="M132.77,32.375v-0.019c0-1.791,1.414-3.258,3.357-3.258c1.945,0,3.34,1.449,3.34,3.24v0.018
			c0,1.792-1.412,3.26-3.357,3.26S132.77,34.167,132.77,32.375z M138.018,32.375v-0.019c0-1.08-0.791-1.98-1.908-1.98
			s-1.891,0.883-1.891,1.963v0.018c0,1.08,0.793,1.98,1.908,1.98C137.244,34.337,138.018,33.455,138.018,32.375z"/>
		<path fill="#231F20" d="M140.52,29.206h1.385v5.041h3.143v1.261h-4.527V29.206z"/>
		<path fill="#231F20" d="M148.15,32.375v-0.019c0-1.791,1.414-3.258,3.357-3.258c1.945,0,3.34,1.449,3.34,3.24v0.018
			c0,1.792-1.412,3.26-3.357,3.26S148.15,34.167,148.15,32.375z M153.398,32.375v-0.019c0-1.08-0.791-1.98-1.908-1.98
			s-1.891,0.883-1.891,1.963v0.018c0,1.08,0.793,1.98,1.908,1.98C152.625,34.337,153.398,33.455,153.398,32.375z"/>
		<path fill="#231F20" d="M155.898,29.206h4.799v1.26h-3.412v1.342h3.008v1.26h-3.008v2.44h-1.387V29.206z"/>
		<path fill="#231F20" d="M164.143,29.206h2.926c0.721,0,1.287,0.197,1.648,0.559c0.287,0.287,0.432,0.639,0.432,1.07v0.019
			c0,0.711-0.379,1.107-0.828,1.359c0.729,0.278,1.18,0.702,1.18,1.548v0.019c0,1.152-0.938,1.729-2.359,1.729h-2.998V29.206z
			 M166.771,31.754c0.611,0,1-0.198,1-0.667v-0.018c0-0.414-0.324-0.648-0.91-0.648h-1.369v1.333H166.771z M167.141,34.292
			c0.611,0,0.98-0.216,0.98-0.684v-0.018c0-0.424-0.314-0.685-1.025-0.685h-1.604v1.386H167.141z"/>
		<path fill="#231F20" d="M170.361,32.808v-3.602h1.387v3.564c0,1.027,0.514,1.559,1.359,1.559s1.359-0.514,1.359-1.514v-3.609
			h1.387v3.557c0,1.908-1.072,2.844-2.764,2.844C171.396,35.606,170.361,34.661,170.361,32.808z"/>
		<path fill="#231F20" d="M176.652,34.589l0.82-0.98c0.566,0.468,1.16,0.766,1.881,0.766c0.566,0,0.908-0.226,0.908-0.595v-0.019
			c0-0.351-0.215-0.531-1.268-0.801c-1.27-0.324-2.09-0.676-2.09-1.926v-0.019c0-1.144,0.918-1.899,2.205-1.899
			c0.92,0,1.703,0.287,2.342,0.801l-0.721,1.045c-0.559-0.388-1.107-0.621-1.639-0.621s-0.811,0.242-0.811,0.549v0.018
			c0,0.414,0.271,0.549,1.359,0.828c1.279,0.334,2,0.793,2,1.891v0.018c0,1.252-0.955,1.954-2.314,1.954
			C178.371,35.598,177.408,35.265,176.652,34.589z"/>
		<path fill="#231F20" d="M182.729,29.206h1.385v6.302h-1.385V29.206z"/>
		<path fill="#231F20" d="M185.508,29.206h1.279l2.953,3.88v-3.88h1.367v6.302h-1.178l-3.053-4.007v4.007h-1.369V29.206z"/>
		<path fill="#231F20" d="M192.438,29.206h4.754v1.233h-3.375v1.278h2.971v1.233h-2.971v1.323h3.42v1.233h-4.799V29.206z"/>
		<path fill="#231F20" d="M197.855,34.589l0.82-0.98c0.566,0.468,1.16,0.766,1.881,0.766c0.568,0,0.91-0.226,0.91-0.595v-0.019
			c0-0.351-0.217-0.531-1.27-0.801c-1.27-0.324-2.09-0.676-2.09-1.926v-0.019c0-1.144,0.92-1.899,2.207-1.899
			c0.918,0,1.701,0.287,2.34,0.801l-0.721,1.045c-0.557-0.388-1.107-0.621-1.639-0.621c-0.529,0-0.809,0.242-0.809,0.549v0.018
			c0,0.414,0.27,0.549,1.359,0.828c1.277,0.334,1.998,0.793,1.998,1.891v0.018c0,1.252-0.955,1.954-2.314,1.954
			C199.576,35.598,198.613,35.265,197.855,34.589z"/>
		<path fill="#231F20" d="M203.436,34.589l0.82-0.98c0.566,0.468,1.16,0.766,1.881,0.766c0.566,0,0.908-0.226,0.908-0.595v-0.019
			c0-0.351-0.215-0.531-1.268-0.801c-1.27-0.324-2.09-0.676-2.09-1.926v-0.019c0-1.144,0.918-1.899,2.205-1.899
			c0.92,0,1.703,0.287,2.342,0.801l-0.721,1.045c-0.559-0.388-1.107-0.621-1.639-0.621s-0.811,0.242-0.811,0.549v0.018
			c0,0.414,0.271,0.549,1.359,0.828c1.279,0.334,2,0.793,2,1.891v0.018c0,1.252-0.955,1.954-2.314,1.954
			C205.154,35.598,204.191,35.265,203.436,34.589z"/>
	</g>
</g>
<rect x="99.336" y="14.462" fill="#231F20" width="0.588" height="26.998"/>
<g>
	<g>
		<path fill="#57068C" d="M47.058,20.173h3.111l7.184,9.443v-9.443h3.33v15.336h-2.871l-7.424-9.75v9.75h-3.33V20.173z"/>
		<path fill="#57068C" d="M68.261,29.462l-5.893-9.289h3.943l3.658,6.156l3.725-6.156h3.834l-5.895,9.225v6.111h-3.373V29.462z"/>
		<path fill="#57068C" d="M78.972,28.937v-8.764h3.373v8.676c0,2.498,1.248,3.791,3.31,3.791c2.059,0,3.307-1.25,3.307-3.68v-8.787
			h3.375v8.654c0,4.643-2.607,6.922-6.727,6.922C81.489,35.749,78.972,33.45,78.972,28.937z"/>
	</g>
	<g>
		<rect x="16" y="17.542" fill="#FFFFFF" width="18.667" height="23"/>
		<path fill="#57068C" d="M40.056,41.46H13.06V14.462h26.996V41.46L40.056,41.46z M25.624,38.304c0.031,0.189,0.441,0.281,0.533,0
			l0.943-7.48h-2.293L25.624,38.304L25.624,38.304z M27.901,30.282v-1.133h-3.896v1.133H27.901L27.901,30.282z M26.778,28.597
			c4.939,0.178,5.289-4.324,5.309-6.008c0.002-0.098-0.045-0.107-0.07-0.039c-0.145,0.352-0.789,1.607-2.57,2.371
			c-1.59,0.682-2.547,2.23-2.713,3.621C26.726,28.577,26.755,28.595,26.778,28.597z M26.235,28.271
			c0.781-3.748,3.832-3.84,4.105-4.551c0.426-1.109-0.354-3.078-0.553-3.311c-0.02-0.025-0.047-0.01-0.055,0.012
			c-0.416,0.908-1.086,1.771-1.576,2.17c-0.691,0.557-3.342,2.521-1.986,5.682C26.188,28.312,26.226,28.302,26.235,28.271z
			 M25.696,28.421c-1.654-3.535,1.652-5.816,2.193-6.313c0.076-0.068,0.057-0.133,0.057-0.213c0.002-1.111-0.635-2.912-0.844-3.17
			c-0.029-0.039-0.055-0.023-0.066,0.018c-0.283,1.098-1.791,2.732-2.092,3.09c-2.555,3.037-1.971,4.887,0.697,6.631
			C25.675,28.485,25.716,28.46,25.696,28.421z M24.956,28.542c-2.768-1.65-2.49-4.008-1.344-5.742
			c0.025-0.035,0.033-0.096,0.025-0.166c-0.049-0.412-0.498-1.455-0.686-1.738c-0.049-0.072-0.09-0.066-0.094-0.016
			c-0.016,0.471-0.553,1.652-1.373,3.014c-0.873,1.449-0.875,4.592,3.459,4.715C24.985,28.608,24.997,28.567,24.956,28.542z"/>
	</g>
</g>
</svg>
